<svg xmlns="http://www.w3.org/2000/svg" viewBox="0 0 1440 760" preserveAspectRatio="xMidYMid slice">
  <defs>
    <linearGradient id="bg3" x1="0" y1="0" x2="1" y2="1">
      <stop offset="0" stop-color="#111e4a"/>
      <stop offset="0.55" stop-color="#1c3f86"/>
      <stop offset="1" stop-color="#2a5fb0"/>
    </linearGradient>
    <radialGradient id="glow3" cx="0.5" cy="0.2" r="0.8">
      <stop offset="0" stop-color="#4b86f0" stop-opacity="0.5"/>
      <stop offset="1" stop-color="#4b86f0" stop-opacity="0"/>
    </radialGradient>
  </defs>
  <rect width="1440" height="760" fill="url(#bg3)"/>
  <rect width="1440" height="760" fill="url(#glow3)"/>
  <g fill="#0a1638" fill-opacity="0.5">
    <rect x="30" y="540" width="84" height="220"/>
    <rect x="124" y="460" width="88" height="300"/>
    <rect x="222" y="576" width="72" height="184"/>
    <rect x="304" y="500" width="90" height="260"/>
    <rect x="404" y="546" width="78" height="214"/>
    <rect x="492" y="430" width="94" height="330"/>
    <rect x="596" y="580" width="74" height="180"/>
    <rect x="680" y="496" width="88" height="264"/>
    <rect x="778" y="552" width="80" height="208"/>
    <rect x="868" y="440" width="92" height="320"/>
    <rect x="970" y="566" width="78" height="194"/>
    <rect x="1058" y="490" width="90" height="270"/>
    <rect x="1158" y="540" width="84" height="220"/>
    <rect x="1252" y="456" width="98" height="304"/>
  </g>
  <g stroke="#cfe0ff" stroke-opacity="0.26" stroke-width="1.2">
    <line x1="600" y1="140" x2="720" y2="110"/>
    <line x1="720" y1="110" x2="840" y2="180"/>
    <line x1="840" y1="180" x2="760" y2="250"/>
    <line x1="760" y1="250" x2="640" y2="270"/>
    <line x1="640" y1="270" x2="600" y2="140"/>
    <line x1="720" y1="110" x2="880" y2="150"/>
  </g>
  <g fill="#e9f1ff">
    <circle cx="600" cy="140" r="5"/><circle cx="720" cy="110" r="6"/><circle cx="840" cy="180" r="5"/>
    <circle cx="760" cy="250" r="4"/><circle cx="640" cy="270" r="5"/><circle cx="880" cy="150" r="5"/>
  </g>
</svg>
