<svg xmlns="http://www.w3.org/2000/svg" viewBox="0 0 1440 760" preserveAspectRatio="xMidYMid slice">
  <defs>
    <linearGradient id="bg" x1="0" y1="0" x2="1" y2="1">
      <stop offset="0" stop-color="#0e2347"/>
      <stop offset="0.55" stop-color="#163f78"/>
      <stop offset="1" stop-color="#1f5aa0"/>
    </linearGradient>
    <radialGradient id="glow" cx="0.72" cy="0.28" r="0.7">
      <stop offset="0" stop-color="#3b86e8" stop-opacity="0.55"/>
      <stop offset="1" stop-color="#3b86e8" stop-opacity="0"/>
    </radialGradient>
  </defs>
  <rect width="1440" height="760" fill="url(#bg)"/>
  <rect width="1440" height="760" fill="url(#glow)"/>
  <g fill="#0a1c3a" fill-opacity="0.55">
    <rect x="20" y="560" width="78" height="200"/>
    <rect x="110" y="470" width="86" height="290"/>
    <rect x="206" y="600" width="70" height="160"/>
    <rect x="286" y="500" width="88" height="260"/>
    <rect x="384" y="556" width="74" height="204"/>
    <rect x="468" y="430" width="90" height="330"/>
    <rect x="568" y="586" width="72" height="174"/>
    <rect x="650" y="486" width="86" height="274"/>
    <rect x="746" y="544" width="78" height="216"/>
    <rect x="834" y="404" width="94" height="356"/>
    <rect x="938" y="566" width="76" height="194"/>
    <rect x="1024" y="476" width="90" height="284"/>
    <rect x="1124" y="528" width="80" height="232"/>
    <rect x="1214" y="440" width="96" height="320"/>
    <rect x="1320" y="566" width="100" height="194"/>
  </g>
  <g fill="#5fb0fb" fill-opacity="0.45">
    <rect x="132" y="500" width="10" height="14"/><rect x="152" y="500" width="10" height="14"/><rect x="172" y="500" width="10" height="14"/>
    <rect x="132" y="528" width="10" height="14"/><rect x="152" y="528" width="10" height="14"/><rect x="172" y="528" width="10" height="14"/>
    <rect x="852" y="440" width="11" height="15"/><rect x="876" y="440" width="11" height="15"/><rect x="900" y="440" width="11" height="15"/>
    <rect x="852" y="472" width="11" height="15"/><rect x="876" y="472" width="11" height="15"/><rect x="900" y="472" width="11" height="15"/>
    <rect x="1234" y="476" width="11" height="15"/><rect x="1258" y="476" width="11" height="15"/><rect x="1282" y="476" width="11" height="15"/>
  </g>
  <g stroke="#bcd8ff" stroke-opacity="0.30" stroke-width="1.2">
    <line x1="980" y1="150" x2="1090" y2="110"/>
    <line x1="1090" y1="110" x2="1200" y2="190"/>
    <line x1="1200" y1="190" x2="1130" y2="270"/>
    <line x1="1130" y1="270" x2="1020" y2="300"/>
    <line x1="1020" y1="300" x2="980" y2="150"/>
    <line x1="1090" y1="110" x2="1250" y2="150"/>
    <line x1="1250" y1="150" x2="1320" y2="240"/>
    <line x1="1200" y1="190" x2="1250" y2="150"/>
    <line x1="1130" y1="270" x2="1290" y2="320"/>
    <line x1="1020" y1="300" x2="1180" y2="340"/>
  </g>
  <g fill="#e4efff">
    <circle cx="980" cy="150" r="5"/><circle cx="1090" cy="110" r="6"/><circle cx="1200" cy="190" r="5"/>
    <circle cx="1130" cy="270" r="4"/><circle cx="1020" cy="300" r="5"/><circle cx="1250" cy="150" r="6"/>
    <circle cx="1320" cy="240" r="4"/><circle cx="1290" cy="320" r="5"/><circle cx="1180" cy="340" r="4"/>
  </g>
</svg>
